<?xml version="1.0" encoding="UTF-8"?>
<svg xmlns="http://www.w3.org/2000/svg" version="1.1" viewBox="0 0 50 50">
  <defs>
    <style>
      .cls-1 {
        fill: #fff;
      }
    </style>
  </defs>
  <!-- Generator: Adobe Illustrator 28.7.5, SVG Export Plug-In . SVG Version: 1.2.0 Build 176)  -->
  <g>
    <g id="Layer_1">
      <rect class="cls-1" width="50" height="50"/>
      <rect class="cls-1" width="50" height="50"/>
      <g>
        <path d="M19.8,11.2l-8.2,28h3.1l2.6-9h8.3l2.8,9h3.2l-8.5-28h-3.3ZM18.1,27.2l3.4-11.4,3.5,11.4h-6.8Z"/>
        <path d="M36.8,10.8c-.4,0-.8.2-1.2.5s-.5.7-.5,1.1.2.8.5,1.1c.3.3.7.5,1.2.5s.8-.2,1.1-.5c.3-.3.5-.7.5-1.2s-.2-.8-.5-1.2-.7-.5-1.1-.5Z"/>
        <rect x="35.3" y="19.2" width="2.9" height="20"/>
      </g>
    </g>
  </g>
</svg>