<?xml version="1.0" encoding="UTF-8"?>
<svg xmlns="http://www.w3.org/2000/svg" version="1.1" viewBox="0 0 50 50">
  <defs>
    <style>
      .cls-1 {
        fill: #fff;
      }
    </style>
  </defs>
  <!-- Generator: Adobe Illustrator 28.7.5, SVG Export Plug-In . SVG Version: 1.2.0 Build 176)  -->
  <g>
    <g id="Layer_1">
      <rect class="cls-1" width="50" height="50"/>
      <path d="M31.7,19.7h-8V4.1h8c4.3,0,7.8,3.5,7.8,7.8s-3.5,7.8-7.8,7.8h0ZM26.3,17.2h5.4c2.9,0,5.3-2.4,5.3-5.3s-2.4-5.3-5.3-5.3h-5.4v10.5h0ZM26.3,19.7h-8c-4.3,0-7.8-3.5-7.8-7.8s3.5-7.8,7.8-7.8h8v15.6h0ZM18.3,6.7c-2.9,0-5.3,2.4-5.3,5.3s2.4,5.3,5.3,5.3h5.4V6.7s-5.4,0-5.4,0ZM26.3,32.8h-8c-4.3,0-7.8-3.5-7.8-7.8s3.5-7.8,7.8-7.8h8v15.6h0ZM18.3,19.7c-2.9,0-5.3,2.4-5.3,5.3s2.4,5.3,5.3,5.3h5.4v-10.5h-5.4ZM18.3,45.9c-4.3,0-7.9-3.5-7.9-7.8s3.5-7.8,7.8-7.8h8v7.7c0,4.4-3.6,7.9-7.9,7.9h0ZM18.3,32.8c-2.9,0-5.3,2.4-5.3,5.3,0,2.9,2.4,5.3,5.3,5.3s5.4-2.4,5.4-5.3v-5.2h-5.4ZM31.7,32.8h-.2c-4.3,0-7.8-3.5-7.8-7.8s3.5-7.8,7.8-7.8h.2c4.3,0,7.8,3.5,7.8,7.8s-3.5,7.8-7.8,7.8ZM31.5,19.7c-2.9,0-5.3,2.4-5.3,5.3s2.4,5.3,5.3,5.3h.2c2.9,0,5.3-2.4,5.3-5.3s-2.4-5.3-5.3-5.3h-.2,0Z"/>
    </g>
  </g>
</svg>