<?xml version="1.0" encoding="UTF-8"?>
<svg xmlns="http://www.w3.org/2000/svg" version="1.1" viewBox="0 0 50 50">
  <defs>
    <style>
      .cls-1 {
        fill: #fff;
      }
    </style>
  </defs>
  <!-- Generator: Adobe Illustrator 28.7.5, SVG Export Plug-In . SVG Version: 1.2.0 Build 176)  -->
  <g>
    <g id="Layer_1">
      <rect class="cls-1" width="50" height="50"/>
      <g>
        <path d="M16.8,9.8H6.5v29.8h3.1v-9.8h7.5c1.4,0,2.7-.3,3.7-.8,1-.5,1.8-1.1,2.3-1.8.5-.7.9-1.6,1.2-2.7.3-1.1.5-2,.5-2.7,0-.7,0-1.6,0-2.6,0-2.8-.7-5.1-2-6.8-1.3-1.7-3.4-2.6-6.2-2.6ZM21.9,21.1c0,.4-.1,1.1-.3,1.9-.2.9-.4,1.5-.8,2-.3.5-.8.9-1.6,1.3-.7.4-1.6.6-2.6.6h-7.1v-14h6.9c3.6,0,5.4,2.2,5.4,6.5s0,1.4,0,1.8Z"/>
        <path d="M39.4,28.3c-1.1-.5-2.2-.9-3.4-1.2-1.1-.4-2.2-.8-3.1-1.4-.9-.5-1.4-1.3-1.4-2.2s.4-1.6,1.1-2.1c.7-.6,1.8-.8,3.3-.8s2.7.4,3.6,1.1l1-2.7-.5-.3c-.3-.2-.9-.4-1.7-.6-.8-.2-1.6-.3-2.6-.3-2.6,0-4.4.6-5.6,1.9s-1.7,2.6-1.7,4,.5,2.6,1.6,3.6c.9.9,1.8,1.5,3,1.9,1.1.4,2.2.8,3.3,1.1,1.1.4,2,.8,2.8,1.4s1.1,1.4,1.1,2.5-.4,1.8-1.3,2.4c-.9.6-2,.8-3.2.8s-2.3-.3-3.2-.9c-.9-.6-1.5-1.4-1.6-2.4h-3c0,1.8.8,3.3,2.2,4.4,1.4,1.2,3.3,1.7,5.8,1.7s4.3-.6,5.6-1.8c1.3-1.2,1.9-2.6,1.9-4.1s-.4-2.9-1.2-3.8-1.7-1.7-2.9-2.1Z"/>
      </g>
    </g>
  </g>
</svg>