<?xml version="1.0" encoding="UTF-8"?>
<svg xmlns="http://www.w3.org/2000/svg" version="1.1" viewBox="0 0 21 19">
  <defs>
    <style>
      .cls-1 {
        fill: #bfaa84;
        fill-rule: evenodd;
      }
    </style>
  </defs>
  <!-- Generator: Adobe Illustrator 28.7.5, SVG Export Plug-In . SVG Version: 1.2.0 Build 176)  -->
  <g>
    <g id="Layer_1">
      <g id="Layer_1-2" data-name="Layer_1">
        <path class="cls-1" d="M12.5,17.7L20.7,3.6c.8-1.4,0-2.9-1.7-2.9H2.7c-1.2,0-2,.7-2,1.8s.1.8.3,1.1l8.2,14.1c.4.7,1,1.1,1.7,1.1s1.3-.4,1.7-1.1h0ZM10.6,16.9L2.5,2.8c0-.2,0-.3,0-.3h16.9s0,0-.1.3l-8.2,14.1c-.1.2-.2.3-.2.3,0,0-.1,0-.2-.3h0Z"/>
      </g>
    </g>
  </g>
</svg>